<svg id="Layer_1" data-name="Layer 1" xmlns="http://www.w3.org/2000/svg" viewBox="0 0 608.67 220.36"><path d="M582.52,138.94l.05,0-.05,0v-.05m-1-1.73v3.52l1.51-.87,0,0,1.5-.87-1.5-.86-.05,0-1.5-.86Z" transform="translate(12.36 -1.44)" fill="#1b1b1b"/><path d="M564.86,138.33v1.27l-1.1-.63,1.1-.64m1-1.73-1.5.87-1.1.63-1.5.87,1.5.86,1.1.64,1.5.86V136.6Z" transform="translate(12.36 -1.44)" fill="#1b1b1b"/><path d="M591.58,123.31v.06l-.05,0,.05,0m1-1.73-1.5.87-.05,0-1.5.87,1.5.86.05,0,1.5.87v-3.52Z" transform="translate(12.36 -1.44)" fill="#1b1b1b"/><path d="M555.29,123l.54.31-.54.31V123m-1-1.73v4.08l1.5-.86.54-.31,1.5-.87-1.5-.87-.54-.31-1.5-.86Z" transform="translate(12.36 -1.44)" fill="#1b1b1b"/><path d="M537.88,122.56v1.56l-1.35-.78,1.35-.78m1-1.73-1.5.86-1.35.78-1.5.87,1.5.86,1.35.78,1.5.87v-5Z" transform="translate(12.36 -1.44)" fill="#1b1b1b"/><path d="M526.76,136.11l5,2.86-5,2.85v-5.71m-1-1.74v9.19l1.5-.87,5-2.86,1.5-.86-1.5-.87-5-2.86-1.5-.87Z" transform="translate(12.36 -1.44)" fill="#1b1b1b"/><path d="M565.32,106.29v2.85l-2.47-1.43,2.47-1.42m1-1.73-1.5.86-2.47,1.43-1.5.86,1.5.87,2.47,1.42,1.5.87v-6.31Z" transform="translate(12.36 -1.44)" fill="#1b1b1b"/><path d="M527.05,105.36l4.07,2.35-4.07,2.35v-4.7m-1-1.73v8.17l1.5-.87,4.07-2.35,1.5-.87-1.5-.86-4.07-2.36-1.5-.86Z" transform="translate(12.36 -1.44)" fill="#1b1b1b"/><path d="M512.38,135.47v7L506.32,139l6.06-3.5m1-1.73-1.5.86-6.06,3.5-1.5.87,1.5.86,6.06,3.5,1.5.87V133.74Z" transform="translate(12.36 -1.44)" fill="#1b1b1b"/><path d="M552.24,86.49l9.7,5.6-9.7,5.59V86.49m-1-1.74V99.42l1.5-.87,9.7-5.6,1.5-.86-1.5-.87-9.7-5.6-1.5-.87Z" transform="translate(12.36 -1.44)" fill="#1b1b1b"/><path d="M542.24,83.75v16.67L527.8,92.09l14.44-8.34m1-1.73-1.5.86L527.3,91.22l-1.5.87,1.5.86,14.44,8.34,1.5.86V82Z" transform="translate(12.36 -1.44)" fill="#1b1b1b"/><path d="M511.45,105.84v3.75l-3.25-1.88,3.25-1.87m1-1.73L511,105l-3.25,1.88-1.5.86,1.5.87,3.25,1.87,1.5.87v-7.21Z" transform="translate(12.36 -1.44)" fill="#1b1b1b"/><path d="M500.47,121.83l2.62,1.51-2.62,1.51v-3m-1-1.73v6.48l1.5-.86,2.62-1.52,1.5-.86-1.5-.87L501,121l-1.5-.86Z" transform="translate(12.36 -1.44)" fill="#1b1b1b"/><path d="M566.33,73.28v6.35l-5.5-3.17,5.5-3.18m1-1.73-1.5.87-5.5,3.17-1.5.87,1.5.86,5.5,3.18,1.5.87V71.55Z" transform="translate(12.36 -1.44)" fill="#1b1b1b"/><path d="M522.18,65.68l18.68,10.78L522.18,87.24V65.68m-1-1.74V89l1.5-.86,18.68-10.79,1.5-.86-1.5-.87L522.68,64.81l-1.5-.87Z" transform="translate(12.36 -1.44)" fill="#1b1b1b"/><path d="M516.59,65.68V87.24L497.91,76.46l18.68-10.78m1-1.74-1.5.87L497.41,75.59l-1.5.87,1.5.86,18.68,10.79,1.5.86v-25Z" transform="translate(12.36 -1.44)" fill="#1b1b1b"/><path d="M496.84,84.29l13.5,7.8-13.5,7.79V84.29m-1-1.73v19l1.5-.86,13.5-7.8,1.5-.86-1.5-.87-13.5-7.8-1.5-.86Z" transform="translate(12.36 -1.44)" fill="#1b1b1b"/><path d="M483.93,122.25v2.18L482,123.34l1.89-1.09m1-1.73-1.5.86-1.89,1.09-1.5.87,1.5.86,1.89,1.09,1.5.87v-5.64Z" transform="translate(12.36 -1.44)" fill="#1b1b1b"/><path d="M472.06,135.14,478.7,139l-6.64,3.83v-7.66m-1-1.74v11.13l1.5-.87,6.64-3.83,1.5-.86-1.5-.87-6.64-3.83-1.5-.87Z" transform="translate(12.36 -1.44)" fill="#1b1b1b"/><path d="M594.87,55.11V66.55L585,60.83l9.91-5.72m1-1.73-1.5.86L584.46,60l-1.5.86,1.5.87,9.91,5.72,1.5.87V53.38Z" transform="translate(12.36 -1.44)" fill="#1b1b1b"/><path d="M549.25,50.05l18.67,10.78L549.25,71.61V50.05m-1-1.73v25l1.5-.87L568.42,61.7l1.5-.87-1.5-.86L549.75,49.18l-1.5-.86Z" transform="translate(12.36 -1.44)" fill="#1b1b1b"/><path d="M543.66,50.05V71.61L525,60.83l18.68-10.78m1-1.73-1.5.86L524.48,60l-1.5.86,1.5.87,18.68,10.78,1.5.87v-25Z" transform="translate(12.36 -1.44)" fill="#1b1b1b"/><path d="M495.12,50.05l18.67,10.78L495.12,71.61V50.05m-1-1.73v25l1.5-.87L514.29,61.7l1.5-.87-1.5-.86L495.62,49.18l-1.5-.86Z" transform="translate(12.36 -1.44)" fill="#1b1b1b"/><path d="M486.89,85.86V98.31l-10.78-6.22,10.78-6.23m1-1.73-1.5.86-10.78,6.23-1.5.87,1.5.86,10.78,6.23,1.5.86V84.13Z" transform="translate(12.36 -1.44)" fill="#1b1b1b"/><path d="M473.08,105.65l3.58,2.06-3.58,2.06v-4.12m-1-1.73v7.59l1.5-.87,3.58-2.06,1.5-.87-1.5-.86-3.58-2.07-1.5-.86Z" transform="translate(12.36 -1.44)" fill="#1b1b1b"/><path d="M458.38,135.25v7.43L451.94,139l6.44-3.72m1-1.73-1.5.86-6.44,3.72-1.5.87,1.5.86,6.44,3.72,1.5.87v-10.9Z" transform="translate(12.36 -1.44)" fill="#1b1b1b"/><path d="M577.08,35.75l16.37,9.45-16.37,9.46V35.75m-1-1.73V56.39l1.5-.87L594,46.07l1.5-.87-1.5-.86-16.37-9.45-1.5-.87Z" transform="translate(12.36 -1.44)" fill="#1b1b1b"/><path d="M570.7,34.46V56L552.09,45.2,570.7,34.46m1-1.73-1.5.86L551.59,44.34l-1.5.86,1.5.87L570.2,56.82l1.5.86v-25Z" transform="translate(12.36 -1.44)" fill="#1b1b1b"/><path d="M522.18,34.42,540.86,45.2,522.18,56V34.42m-1-1.73v25l1.5-.87,18.68-10.78,1.5-.87-1.5-.86L522.68,33.56l-1.5-.87Z" transform="translate(12.36 -1.44)" fill="#1b1b1b"/><path d="M516.59,34.42V56L497.91,45.2l18.68-10.78m1-1.73-1.5.87L497.41,44.34l-1.5.86,1.5.87,18.68,10.78,1.5.87v-25Z" transform="translate(12.36 -1.44)" fill="#1b1b1b"/><path d="M489.52,50.05V71.61L470.85,60.83l18.67-10.78m1-1.73-1.5.86L470.35,60l-1.5.86,1.5.87L489,72.48l1.5.87v-25Z" transform="translate(12.36 -1.44)" fill="#1b1b1b"/><path d="M469.54,68.26l14.2,8.2-14.2,8.2V68.26m-1-1.73V86.39l1.5-.86,14.2-8.21,1.5-.86-1.5-.87L470,67.39l-1.5-.86Z" transform="translate(12.36 -1.44)" fill="#1b1b1b"/><path d="M458.31,104.1v7.22l-6.25-3.61,6.25-3.61m1-1.73-1.5.87-6.25,3.61-1.5.86,1.5.87,6.25,3.61,1.5.86V102.37Z" transform="translate(12.36 -1.44)" fill="#1b1b1b"/><path d="M446.39,121.91l2.46,1.43-2.46,1.42v-2.85m-1-1.73v6.32l1.5-.87,2.46-1.43,1.5-.86-1.5-.87-2.46-1.42-1.5-.87Z" transform="translate(12.36 -1.44)" fill="#1b1b1b"/><path d="M595.3,23.1v13l-11.22-6.48L595.3,23.1m1-1.73-1.5.86-11.22,6.48-1.5.87,1.5.86,11.22,6.48,1.5.87V21.37Z" transform="translate(12.36 -1.44)" fill="#1b1b1b"/><path d="M549.69,19.56l17.36,10-17.36,10v-20m-1-1.74V41.33l1.5-.86,17.36-10,1.5-.86-1.5-.87-17.36-10-1.5-.87Z" transform="translate(12.36 -1.44)" fill="#1b1b1b"/><path d="M543.38,19.27V39.89L525.53,29.58l17.85-10.31m1-1.73-1.5.86L525,28.71l-1.5.87,1.5.86,17.85,10.31,1.5.87V17.54Z" transform="translate(12.36 -1.44)" fill="#1b1b1b"/><path d="M495.12,18.8l18.67,10.78L495.12,40.36V18.8m-1-1.74v25l1.5-.86,18.67-10.79,1.5-.86-1.5-.87L495.62,17.93l-1.5-.87Z" transform="translate(12.36 -1.44)" fill="#1b1b1b"/><path d="M489.52,18.8V40.36L470.85,29.58,489.52,18.8m1-1.74-1.5.87L470.35,28.71l-1.5.87,1.5.86L489,41.23l1.5.86v-25Z" transform="translate(12.36 -1.44)" fill="#1b1b1b"/><path d="M468.05,34.42,486.73,45.2,468.05,56V34.42m-1-1.73v25l1.5-.87,18.68-10.78,1.5-.87-1.5-.86L468.55,33.56l-1.5-.87Z" transform="translate(12.36 -1.44)" fill="#1b1b1b"/><path d="M460.5,69.07V83.85l-12.81-7.39,12.81-7.39m1-1.74-1.5.87-12.81,7.39-1.5.87,1.5.86L460,84.72l1.5.86V67.33Z" transform="translate(12.36 -1.44)" fill="#1b1b1b"/><path d="M443.17,85.09l12.12,7-12.12,7v-14m-1-1.73v17.46l1.5-.87,12.12-7,1.5-.86-1.5-.87-12.12-7-1.5-.86Z" transform="translate(12.36 -1.44)" fill="#1b1b1b"/><path d="M429.41,122.91v.86l-.75-.43.75-.43m1-1.74-1.5.87-.75.43-1.5.87,1.5.86.75.44,1.5.86v-4.33Z" transform="translate(12.36 -1.44)" fill="#1b1b1b"/><path d="M417.67,134.68l7.42,4.29-7.42,4.28v-8.57m-1-1.73v12l1.5-.86,7.42-4.29,1.5-.86-1.5-.87-7.42-4.28-1.5-.87Z" transform="translate(12.36 -1.44)" fill="#1b1b1b"/><path d="M582.54,14h0m-1-1.76V14h0V15.7l1.51-.88,1.46-.86-1.46-.87-1.51-.9Z" transform="translate(12.36 -1.44)" fill="#1b1b1b"/><path d="M565,13.17v1.56L563.6,14l1.35-.78m1-1.73-1.5.87-1.35.78-1.5.86,1.5.87,1.35.78,1.5.86v-5Z" transform="translate(12.36 -1.44)" fill="#1b1b1b"/><path d="M510.37,14h0m1-1.73-1.5.86h0l-1.51.87,1.52.86,1.49.85V12.22Z" transform="translate(12.36 -1.44)" fill="#1b1b1b"/><path d="M462.46,34.42V56L443.78,45.2l18.68-10.78m1-1.73-1.5.87L443.28,44.34l-1.5.86,1.5.87L462,56.85l1.5.87v-25Z" transform="translate(12.36 -1.44)" fill="#1b1b1b"/><path d="M441,50.05l18.68,10.78L441,71.61V50.05m-1-1.73v25l1.5-.87L460.16,61.7l1.5-.87-1.5-.86L441.48,49.18l-1.5-.86Z" transform="translate(12.36 -1.44)" fill="#1b1b1b"/><path d="M433.59,84.43V99.75l-13.27-7.66,13.27-7.66m1-1.74-1.5.87-13.27,7.66-1.5.87,1.5.86,13.27,7.66,1.5.87V82.69Z" transform="translate(12.36 -1.44)" fill="#1b1b1b"/><path d="M418,104l6.44,3.72L418,111.43V104m-1-1.73v10.9l1.5-.86,6.44-3.72,1.5-.87-1.5-.86-6.44-3.72-1.5-.87Z" transform="translate(12.36 -1.44)" fill="#1b1b1b"/><path d="M404.84,134.21v9.51L396.61,139l8.23-4.76m1-1.73-1.5.87-8.23,4.75-1.5.87,1.5.86,8.23,4.75,1.5.87v-13Z" transform="translate(12.36 -1.44)" fill="#1b1b1b"/><path d="M393,154.44l.26.15-.26.15v-.3m-1-1.73v3.76l1.5-.86.26-.15,1.5-.87-1.5-.86-.26-.15-1.5-.87Z" transform="translate(12.36 -1.44)" fill="#1b1b1b"/><path d="M441,18.83l18.62,10.75L441,40.32V18.83m-1-1.73v25l1.5-.87,18.62-10.75,1.5-.86-1.5-.87L441.5,18,440,17.1Z" transform="translate(12.36 -1.44)" fill="#1b1b1b"/><path d="M435.39,50.05V71.61L416.71,60.83l18.68-10.78m1-1.73-1.5.86L416.21,60l-1.5.86,1.5.87,18.68,10.78,1.5.87v-25Z" transform="translate(12.36 -1.44)" fill="#1b1b1b"/><path d="M415.17,67.85l14.92,8.61-14.92,8.61V67.85m-1-1.74V86.8l1.5-.86,14.92-8.62,1.5-.86-1.5-.87L415.67,67l-1.5-.87Z" transform="translate(12.36 -1.44)" fill="#1b1b1b"/><path d="M403.87,104.64v6.14l-5.31-3.07,5.31-3.07m1-1.73-1.5.87-5.31,3.07-1.5.86,1.5.87,5.31,3.07,1.5.86v-9.6Z" transform="translate(12.36 -1.44)" fill="#1b1b1b"/><path d="M375.25,154.22V155l-.65-.37.65-.37m1-1.73-1.5.87-.65.37-1.5.86,1.5.87.65.37,1.5.87v-4.21Z" transform="translate(12.36 -1.44)" fill="#1b1b1b"/><path d="M435.37,18.83V40.32L416.76,29.58l18.61-10.75m1-1.73-1.5.87L416.26,28.71l-1.5.87,1.5.86,18.61,10.75,1.5.87v-25Z" transform="translate(12.36 -1.44)" fill="#1b1b1b"/><path d="M413.92,34.42,432.59,45.2,413.92,56V34.42m-1-1.73v25l1.5-.87,18.67-10.78,1.5-.87-1.5-.86L414.42,33.56l-1.5-.87Z" transform="translate(12.36 -1.44)" fill="#1b1b1b"/><path d="M407.31,67.43V85.49l-15.64-9,15.64-9m1-1.73-1.5.86-15.64,9-1.5.87,1.5.86,15.64,9,1.5.87V65.7Z" transform="translate(12.36 -1.44)" fill="#1b1b1b"/><path d="M388.81,84.69l12.8,7.4-12.8,7.39V84.69m-1-1.73v18.25l1.5-.87L402.11,93l1.5-.86-1.5-.87-12.8-7.39-1.5-.87Z" transform="translate(12.36 -1.44)" fill="#1b1b1b"/><path d="M364.82,136.9l3.57,2.07L364.82,141V136.9m-1-1.73v7.59l1.5-.87,3.57-2.06,1.5-.86-1.5-.87L365.32,136l-1.5-.87Z" transform="translate(12.36 -1.44)" fill="#1b1b1b"/><path d="M420.13,13.92l0,0,0,0v-.06m-1-1.73v3.52l1.5-.86,0,0,1.51-.87-1.51-.86,0,0-1.5-.87Z" transform="translate(12.36 -1.44)" fill="#1b1b1b"/><path d="M408.32,34.42V56L389.65,45.2l18.67-10.78m1-1.73-1.5.87L389.15,44.34l-1.5.86,1.5.87,18.67,10.78,1.5.87v-25Z" transform="translate(12.36 -1.44)" fill="#1b1b1b"/><path d="M386.85,50.05l18.68,10.78L386.85,71.61V50.05m-1-1.73v25l1.5-.87L406,61.7l1.5-.87L406,60,387.35,49.18l-1.5-.86Z" transform="translate(12.36 -1.44)" fill="#1b1b1b"/><path d="M379,85.22V99l-11.9-6.86L379,85.22m1-1.73-1.5.86-11.9,6.87-1.5.87,1.5.86,11.9,6.87,1.5.86V83.49Z" transform="translate(12.36 -1.44)" fill="#1b1b1b"/><path d="M363.73,103.77l6.83,3.94-6.83,3.94v-7.88m-1-1.73v11.35l1.5-.87,6.83-3.94,1.5-.87-1.5-.86-6.83-3.95-1.5-.86Z" transform="translate(12.36 -1.44)" fill="#1b1b1b"/><path d="M349.05,137.09v3.75L345.8,139l3.25-1.88m1-1.73-1.5.87-3.25,1.87-1.5.87,1.5.86,3.25,1.88,1.5.86v-7.21Z" transform="translate(12.36 -1.44)" fill="#1b1b1b"/><path d="M338.88,154.49l.18.1-.18.11v-.21m-1-1.73v3.67l1.5-.87.18-.1,1.5-.87-1.5-.86-.18-.11-1.5-.86Z" transform="translate(12.36 -1.44)" fill="#1b1b1b"/><path d="M387.62,20.13,404,29.58,387.62,39V20.13m-1-1.73V40.76l1.5-.86,16.37-9.46,1.5-.86-1.5-.87-16.37-9.45-1.5-.86Z" transform="translate(12.36 -1.44)" fill="#1b1b1b"/><path d="M381.26,50.05V71.61L362.58,60.83l18.68-10.78m1-1.73-1.5.86L362.08,60l-1.5.86,1.5.87,18.68,10.78,1.5.87v-25Z" transform="translate(12.36 -1.44)" fill="#1b1b1b"/><path d="M361.59,68.8l13.26,7.66-13.26,7.66V68.8m-1-1.73V85.85l1.5-.87,13.26-7.66,1.5-.86-1.5-.87-13.26-7.66-1.5-.86Z" transform="translate(12.36 -1.44)" fill="#1b1b1b"/><path d="M350.51,103.31v8.8l-7.63-4.4,7.63-4.4m1-1.73-1.5.87-7.63,4.4-1.5.86,1.5.87L350,113l1.5.86V101.58Z" transform="translate(12.36 -1.44)" fill="#1b1b1b"/><path d="M321.57,153.42v2.34l-2-1.17,2-1.17m1-1.73-1.5.87-2,1.17-1.5.86,1.5.87,2,1.17,1.5.87v-5.81Z" transform="translate(12.36 -1.44)" fill="#1b1b1b"/><path d="M380.9,19.41V39.74L363.29,29.58,380.9,19.41m1-1.73-1.5.87L362.79,28.71l-1.5.87,1.5.86L380.4,40.61l1.5.87V17.68Z" transform="translate(12.36 -1.44)" fill="#1b1b1b"/><path d="M359.78,34.42,378.46,45.2,359.78,56V34.42m-1-1.73v25l1.5-.87L379,46.07l1.5-.87-1.5-.86L360.28,33.56l-1.5-.87Z" transform="translate(12.36 -1.44)" fill="#1b1b1b"/><path d="M352.94,67.85V85.07L338,76.46l14.92-8.61m1-1.74-1.5.87-14.92,8.61-1.5.87,1.5.86,14.92,8.62,1.5.86V66.11Z" transform="translate(12.36 -1.44)" fill="#1b1b1b"/><path d="M333.89,83.33l15.16,8.76-15.16,8.75V83.33m-1-1.73v21l1.5-.87L349.55,93l1.5-.86-1.5-.87-15.16-8.75-1.5-.87Z" transform="translate(12.36 -1.44)" fill="#1b1b1b"/><path d="M321.87,121.65V125L319,123.34l2.92-1.69m1-1.73-1.5.86-2.92,1.69-1.5.87,1.5.86,2.92,1.69,1.5.87v-6.84Z" transform="translate(12.36 -1.44)" fill="#1b1b1b"/><path d="M309.86,135.47l6.06,3.5-6.06,3.49v-7m-1-1.73V144.2l1.5-.87,6.06-3.5,1.5-.86-1.5-.87-6.06-3.5-1.5-.86Z" transform="translate(12.36 -1.44)" fill="#1b1b1b"/><path d="M365.6,13.25l1.22.7-1.22.71V13.25m-1-1.74v4.88l1.5-.87,1.22-.7,1.5-.87-1.5-.86-1.22-.71-1.5-.87Z" transform="translate(12.36 -1.44)" fill="#1b1b1b"/><path d="M354.19,34.42V56L335.51,45.2l18.68-10.78m1-1.73-1.5.87L335,44.34l-1.5.86,1.5.87,18.68,10.78,1.5.87v-25Z" transform="translate(12.36 -1.44)" fill="#1b1b1b"/><path d="M332.72,50.05l18.67,10.78L332.72,71.61V50.05m-1-1.73v25l1.5-.87L351.89,61.7l1.5-.87-1.5-.86L333.22,49.18l-1.5-.86Z" transform="translate(12.36 -1.44)" fill="#1b1b1b"/><path d="M327.12,81.3v21.57L308.45,92.09,327.12,81.3m1-1.73-1.5.87L308,91.22l-1.5.87L308,93l18.67,10.78,1.5.87v-25Z" transform="translate(12.36 -1.44)" fill="#1b1b1b"/><path d="M306.17,97.83l17.11,9.88-17.11,9.88V97.83m-1-1.73v23.22l1.5-.86,17.11-9.88,1.5-.87-1.5-.86L306.67,97l-1.5-.87Z" transform="translate(12.36 -1.44)" fill="#1b1b1b"/><path d="M295.92,135.36v7.21l-6.25-3.6,6.25-3.61m1-1.73-1.5.86-6.25,3.61-1.5.87,1.5.86,6.25,3.61,1.5.87V133.63Z" transform="translate(12.36 -1.44)" fill="#1b1b1b"/><path d="M282.85,151.2l5.87,3.39L282.85,158V151.2m-1-1.73v10.24l1.5-.86,5.87-3.39,1.5-.87-1.5-.86-5.87-3.39-1.5-.87Z" transform="translate(12.36 -1.44)" fill="#1b1b1b"/><path d="M349.74,10.88V17L344.42,14l5.32-3.07m1-1.73-1.5.87-5.32,3.07-1.5.86,1.5.87,5.32,3.07,1.5.86V9.15Z" transform="translate(12.36 -1.44)" fill="#1b1b1b"/><path d="M332.72,18.8l18.67,10.78L332.72,40.36V18.8m-1-1.74v25l1.5-.86,18.67-10.79,1.5-.86-1.5-.87L333.22,17.93l-1.5-.87Z" transform="translate(12.36 -1.44)" fill="#1b1b1b"/><path d="M327.12,50.05V71.61L308.45,60.83l18.67-10.78m1-1.73-1.5.86L308,60l-1.5.86,1.5.87,18.67,10.78,1.5.87v-25Z" transform="translate(12.36 -1.44)" fill="#1b1b1b"/><path d="M305.65,65.68l18.68,10.78L305.65,87.24V65.68m-1-1.74V89l1.5-.86,18.68-10.79,1.5-.86-1.5-.87L306.15,64.81l-1.5-.87Z" transform="translate(12.36 -1.44)" fill="#1b1b1b"/><path d="M300.06,96.93v21.56l-18.68-10.78,18.68-10.78m1-1.73-1.5.86-18.68,10.79-1.5.86,1.5.87,18.68,10.78,1.5.87v-25Z" transform="translate(12.36 -1.44)" fill="#1b1b1b"/><path d="M283.34,120.79l4.42,2.55-4.42,2.55v-5.1m-1-1.74v8.57l1.5-.86,4.42-2.56,1.5-.86-1.5-.87-4.42-2.55-1.5-.87Z" transform="translate(12.36 -1.44)" fill="#1b1b1b"/><path d="M268.85,151v7.22l-6.25-3.61,6.25-3.61m1-1.73-1.5.87-6.25,3.61-1.5.86,1.5.87,6.25,3.61,1.5.86V149.25Z" transform="translate(12.36 -1.44)" fill="#1b1b1b"/><path d="M256.77,168.53l2.93,1.69-2.93,1.69v-3.38m-1-1.73v6.84l1.5-.86,2.93-1.69,1.5-.87-1.5-.87-2.93-1.69-1.5-.86Z" transform="translate(12.36 -1.44)" fill="#1b1b1b"/><path d="M327.12,18.8V40.36L308.45,29.58,327.12,18.8m1-1.74-1.5.87L308,28.71l-1.5.87,1.5.86,18.67,10.79,1.5.86v-25Z" transform="translate(12.36 -1.44)" fill="#1b1b1b"/><path d="M305.65,34.42,324.33,45.2,305.65,56V34.42m-1-1.73v25l1.5-.87,18.68-10.78,1.5-.87-1.5-.86L306.15,33.56l-1.5-.87Z" transform="translate(12.36 -1.44)" fill="#1b1b1b"/><path d="M300.06,65.68V87.24L281.38,76.46l18.68-10.78m1-1.74-1.5.87L280.88,75.59l-1.5.87,1.5.86,18.68,10.79,1.5.86v-25Z" transform="translate(12.36 -1.44)" fill="#1b1b1b"/><path d="M278.58,81.3l18.68,10.79-18.68,10.78V81.3m-1-1.73v25l1.5-.87L297.76,93l1.5-.86-1.5-.87L279.08,80.44l-1.5-.87Z" transform="translate(12.36 -1.44)" fill="#1b1b1b"/><path d="M267.26,122.49v1.7l-1.48-.85,1.48-.85m1-1.74-1.5.87-1.48.85-1.5.87,1.5.86,1.48.86,1.5.86v-5.17Z" transform="translate(12.36 -1.44)" fill="#1b1b1b"/><path d="M257.29,138.19l1.35.78-1.35.77v-1.55m-1-1.74v5l1.5-.87,1.35-.78,1.5-.86-1.5-.87-1.35-.78-1.5-.87Z" transform="translate(12.36 -1.44)" fill="#1b1b1b"/><path d="M240.78,168.35v3.74l-3.24-1.87,3.24-1.87m1-1.74-1.5.87L237,169.35l-1.5.87,1.5.87,3.24,1.87,1.5.86v-7.21Z" transform="translate(12.36 -1.44)" fill="#1b1b1b"/><path d="M309.13,9.2,317.36,14l-8.23,4.75V9.2m-1-1.73v13l1.5-.87,8.23-4.75,1.5-.87-1.5-.86-8.23-4.76-1.5-.86Z" transform="translate(12.36 -1.44)" fill="#1b1b1b"/><path d="M300.06,34.42V56L281.38,45.2l18.68-10.78m1-1.73-1.5.87L280.88,44.34l-1.5.86,1.5.87,18.68,10.78,1.5.87v-25Z" transform="translate(12.36 -1.44)" fill="#1b1b1b"/><path d="M278.58,50.05l18.68,10.78L278.58,71.61V50.05m-1-1.73v25l1.5-.87L297.76,61.7l1.5-.87-1.5-.86L279.08,49.18l-1.5-.86Z" transform="translate(12.36 -1.44)" fill="#1b1b1b"/><path d="M273,81.3v21.57L254.32,92.09,273,81.3m1-1.73-1.5.87L253.82,91.22l-1.5.87,1.5.86,18.67,10.78,1.5.87v-25Z" transform="translate(12.36 -1.44)" fill="#1b1b1b"/><path d="M253.17,99.78l13.73,7.93-13.73,7.93V99.78m-1-1.73v19.32l1.5-.86,13.73-7.93,1.5-.87-1.5-.86-13.73-7.93-1.5-.87Z" transform="translate(12.36 -1.44)" fill="#1b1b1b"/><path d="M241.91,135.14v7.66L235.28,139l6.63-3.83m1-1.74-1.5.87-6.63,3.83-1.5.87,1.5.86,6.63,3.83,1.5.87V133.4Z" transform="translate(12.36 -1.44)" fill="#1b1b1b"/><path d="M226.25,146.93l13.27,7.66-13.27,7.66V146.93m-1-1.73V164l1.5-.86L240,155.46l1.5-.87-1.5-.86-13.27-7.66-1.5-.87Z" transform="translate(12.36 -1.44)" fill="#1b1b1b"/><path d="M212.85,185.47v.75l-.65-.37.65-.38m1-1.73-1.5.87-.65.37-1.5.87,1.5.86.65.37,1.5.87v-4.21Z" transform="translate(12.36 -1.44)" fill="#1b1b1b"/><path d="M297,8.48v11L287.51,14,297,8.48m1-1.74-1.5.87L287,13.09l-1.5.86,1.5.87,9.48,5.47,1.5.87V6.74Z" transform="translate(12.36 -1.44)" fill="#1b1b1b"/><path d="M278.58,18.8l18.68,10.78L278.58,40.36V18.8m-1-1.74v25l1.5-.86,18.68-10.79,1.5-.86-1.5-.87L279.08,17.93l-1.5-.87Z" transform="translate(12.36 -1.44)" fill="#1b1b1b"/><path d="M273,50.05V71.61L254.32,60.83,273,50.05m1-1.73-1.5.86L253.82,60l-1.5.86,1.5.87,18.67,10.78,1.5.87v-25Z" transform="translate(12.36 -1.44)" fill="#1b1b1b"/><path d="M251.52,65.68l18.67,10.78L251.52,87.24V65.68m-1-1.74V89l1.5-.86,18.67-10.79,1.5-.86-1.5-.87L252,64.81l-1.5-.87Z" transform="translate(12.36 -1.44)" fill="#1b1b1b"/><path d="M243.66,100.84v13.74l-11.89-6.87,11.89-6.87m1-1.73-1.5.87-11.89,6.87-1.5.86,1.5.87,11.89,6.87,1.5.86V99.11Z" transform="translate(12.36 -1.44)" fill="#1b1b1b"/><path d="M227.93,118.59l8.23,4.75-8.23,4.75v-9.5m-1-1.73v13l1.5-.86,8.23-4.76,1.5-.86-1.5-.87-8.23-4.75-1.5-.86Z" transform="translate(12.36 -1.44)" fill="#1b1b1b"/><path d="M217.69,145.84v17.5l-15.16-8.75,15.16-8.75m1-1.73-1.5.87L202,153.73l-1.5.86,1.5.87,15.16,8.75,1.5.87v-21Z" transform="translate(12.36 -1.44)" fill="#1b1b1b"/><path d="M202,167.46l4.77,2.76L202,173v-5.51m-1-1.73v9l1.5-.87,4.77-2.75,1.5-.87-1.5-.87-4.77-2.75-1.5-.87Z" transform="translate(12.36 -1.44)" fill="#1b1b1b"/><path d="M273,18.8V40.36L254.32,29.58,273,18.8m1-1.74-1.5.87L253.82,28.71l-1.5.87,1.5.86,18.67,10.79,1.5.86v-25Z" transform="translate(12.36 -1.44)" fill="#1b1b1b"/><path d="M251.52,34.42,270.19,45.2,251.52,56V34.42m-1-1.73v25l1.5-.87,18.67-10.78,1.5-.87-1.5-.86L252,33.56l-1.5-.87Z" transform="translate(12.36 -1.44)" fill="#1b1b1b"/><path d="M245.92,65.68V87.24L227.25,76.46l18.67-10.78m1-1.74-1.5.87L226.75,75.59l-1.5.87,1.5.86,18.67,10.79,1.5.86v-25Z" transform="translate(12.36 -1.44)" fill="#1b1b1b"/><path d="M225.38,82.92l15.89,9.17-15.89,9.16V82.92m-1-1.74V103l1.5-.87L241.77,93l1.5-.86-1.5-.87-15.89-9.17-1.5-.87Z" transform="translate(12.36 -1.44)" fill="#1b1b1b"/><path d="M216.6,116.47v13.74l-11.9-6.87,11.9-6.87m1-1.73-1.5.87-11.9,6.86-1.5.87,1.5.86,11.9,6.87,1.5.87v-17.2Z" transform="translate(12.36 -1.44)" fill="#1b1b1b"/><path d="M197.39,128.18,216.06,139l-18.67,10.78V128.18m-1-1.73v25l1.5-.87,18.67-10.78,1.5-.86-1.5-.87-18.67-10.78-1.5-.87Z" transform="translate(12.36 -1.44)" fill="#1b1b1b"/><path d="M187,167.67v5.1l-4.42-2.55,4.42-2.55m1-1.73-1.5.86-4.42,2.55-1.5.87,1.5.87,4.42,2.55,1.5.86v-8.56Z" transform="translate(12.36 -1.44)" fill="#1b1b1b"/><path d="M254.86,9l8.65,5-8.65,5V9m-1-1.73V20.67l1.5-.86,8.65-5,1.5-.87-1.5-.86-8.65-5-1.5-.87Z" transform="translate(12.36 -1.44)" fill="#1b1b1b"/><path d="M245.92,34.42V56L227.25,45.2l18.67-10.78m1-1.73-1.5.87L226.75,44.34l-1.5.86,1.5.87,18.67,10.78,1.5.87v-25Z" transform="translate(12.36 -1.44)" fill="#1b1b1b"/><path d="M224.45,50.05l18.68,10.78L224.45,71.61V50.05m-1-1.73v25l1.5-.87L243.63,61.7l1.5-.87-1.5-.86L225,49.18l-1.5-.86Z" transform="translate(12.36 -1.44)" fill="#1b1b1b"/><path d="M217.45,83.75v16.67L203,92.09l14.44-8.34m1-1.73-1.5.86-14.44,8.34-1.5.87,1.5.86L217,101.29l1.5.86V82Z" transform="translate(12.36 -1.44)" fill="#1b1b1b"/><path d="M201.59,104.21l6.06,3.5-6.06,3.5v-7m-1-1.73v10.46l1.5-.86,6.06-3.5,1.5-.87-1.5-.86-6.06-3.5-1.5-.87Z" transform="translate(12.36 -1.44)" fill="#1b1b1b"/><path d="M191.79,128.18v21.57L173.12,139l18.67-10.79m1-1.73-1.5.87L172.62,138.1l-1.5.87,1.5.86,18.67,10.78,1.5.87v-25Z" transform="translate(12.36 -1.44)" fill="#1b1b1b"/><path d="M171.57,146l14.92,8.61-14.92,8.61V146m-1-1.73v20.69l1.5-.87L187,155.46l1.5-.87-1.5-.86-14.92-8.62-1.5-.86Z" transform="translate(12.36 -1.44)" fill="#1b1b1b"/><path d="M159.8,183.59v4.51l-3.9-2.25,3.9-2.26m1-1.73-1.5.87L155.4,185l-1.5.87,1.5.86,3.9,2.26,1.5.86v-8Z" transform="translate(12.36 -1.44)" fill="#1b1b1b"/><path d="M148.5,199.78l2.93,1.69-2.93,1.69v-3.38m-1-1.73v6.84L149,204l2.93-1.69,1.5-.87-1.5-.86L149,198.92l-1.5-.87Z" transform="translate(12.36 -1.44)" fill="#1b1b1b"/><path d="M243.37,7.6V20.3l-11-6.35,11-6.35m1-1.73-1.5.86-11,6.36-1.5.86,1.5.87,11,6.35,1.5.87V5.87Z" transform="translate(12.36 -1.44)" fill="#1b1b1b"/><path d="M224.45,18.8l18.68,10.78L224.45,40.36V18.8m-1-1.74v25l1.5-.86,18.68-10.79,1.5-.86-1.5-.87L225,17.93l-1.5-.87Z" transform="translate(12.36 -1.44)" fill="#1b1b1b"/><path d="M218.86,50.05V71.61L200.18,60.83l18.68-10.78m1-1.73-1.5.86L199.68,60l-1.5.86,1.5.87,18.68,10.78,1.5.87v-25Z" transform="translate(12.36 -1.44)" fill="#1b1b1b"/><path d="M197.39,65.68l18.67,10.78L197.39,87.24V65.68m-1-1.74V89l1.5-.86,18.67-10.79,1.5-.86-1.5-.87L197.89,64.81l-1.5-.87Z" transform="translate(12.36 -1.44)" fill="#1b1b1b"/><path d="M187.34,104.64v6.14L182,107.71l5.32-3.07m1-1.73-1.5.87-5.32,3.07-1.5.86,1.5.87,5.32,3.07,1.5.86v-9.6Z" transform="translate(12.36 -1.44)" fill="#1b1b1b"/><path d="M173.8,118.59l8.23,4.75-8.23,4.75v-9.5m-1-1.73v13l1.5-.86,8.23-4.76,1.5-.86-1.5-.87-8.23-4.75-1.5-.86Z" transform="translate(12.36 -1.44)" fill="#1b1b1b"/><path d="M162.24,148.11v13L151,154.59l11.22-6.48m1-1.73-1.5.87-11.22,6.48-1.5.86,1.5.87,11.22,6.48,1.5.86V146.38Z" transform="translate(12.36 -1.44)" fill="#1b1b1b"/><path d="M146,164.25l10.34,6-10.34,6V164.25m-1-1.73v15.4l1.5-.86,10.34-6,1.5-.87-1.5-.87-10.34-6-1.5-.86Z" transform="translate(12.36 -1.44)" fill="#1b1b1b"/><path d="M131.52,201.32v.3l-.26-.15.26-.15m1-1.73-1.5.87-.26.15-1.5.86,1.5.87.26.15,1.5.87v-3.77Z" transform="translate(12.36 -1.44)" fill="#1b1b1b"/><path d="M218.86,18.8V40.36L200.18,29.58,218.86,18.8m1-1.74-1.5.87L199.68,28.71l-1.5.87,1.5.86,18.68,10.79,1.5.86v-25Z" transform="translate(12.36 -1.44)" fill="#1b1b1b"/><path d="M197.39,34.42,216.06,45.2,197.39,56V34.42m-1-1.73v25l1.5-.87,18.67-10.78,1.5-.87-1.5-.86L197.89,33.56l-1.5-.87Z" transform="translate(12.36 -1.44)" fill="#1b1b1b"/><path d="M191.79,65.68V87.24L173.12,76.46l18.67-10.78m1-1.74-1.5.87L172.62,75.59l-1.5.87,1.5.86,18.67,10.79,1.5.86v-25Z" transform="translate(12.36 -1.44)" fill="#1b1b1b"/><path d="M171.73,83.75l14.44,8.34-14.44,8.33V83.75m-1-1.73v20.13l1.5-.86L186.67,93l1.5-.86-1.5-.87-14.44-8.34-1.5-.86Z" transform="translate(12.36 -1.44)" fill="#1b1b1b"/><path d="M159,122.41v1.86l-1.61-.93,1.61-.93m1-1.73-1.5.86-1.61.93-1.5.87,1.5.86,1.61.94,1.5.86v-5.32Z" transform="translate(12.36 -1.44)" fill="#1b1b1b"/><path d="M146.8,134.33l8,4.64-8,4.63v-9.27m-1-1.73v12.73l1.5-.86,8-4.64,1.5-.86-1.5-.87-8-4.63-1.5-.87Z" transform="translate(12.36 -1.44)" fill="#1b1b1b"/><path d="M135.47,163.22v14l-12.12-7,12.12-7m1-1.73-1.5.87-12.12,7-1.5.87,1.5.87,12.12,7,1.5.87V161.49Z" transform="translate(12.36 -1.44)" fill="#1b1b1b"/><path d="M121.83,184.84l1.75,1-1.75,1v-2m-1-1.73v5.48l1.5-.87,1.75-1,1.5-.86-1.5-.87-1.75-1-1.5-.86Z" transform="translate(12.36 -1.44)" fill="#1b1b1b"/><path d="M198.8,5.61,213.24,14,198.8,22.29V5.61m-1-1.73V24l1.5-.87,14.44-8.33,1.5-.87-1.5-.86L199.3,4.75l-1.5-.87Z" transform="translate(12.36 -1.44)" fill="#1b1b1b"/><path d="M191.79,34.42V56L173.12,45.2l18.67-10.78m1-1.73-1.5.87L172.62,44.34l-1.5.86,1.5.87,18.67,10.78,1.5.87v-25Z" transform="translate(12.36 -1.44)" fill="#1b1b1b"/><path d="M170.32,50.05,189,60.83,170.32,71.61V50.05m-1-1.73v25l1.5-.87L189.5,61.7l1.5-.87L189.5,60,170.82,49.18l-1.5-.86Z" transform="translate(12.36 -1.44)" fill="#1b1b1b"/><path d="M162.77,84.69V99.48L150,92.09l12.81-7.4m1-1.73-1.5.87-12.81,7.39-1.5.87,1.5.86,12.81,7.39,1.5.87V83Z" transform="translate(12.36 -1.44)" fill="#1b1b1b"/><path d="M149.11,107.08l1.1.63-1.1.64v-1.27m-1-1.73v4.73l1.5-.87,1.1-.63,1.5-.87-1.5-.86-1.1-.64-1.5-.86Z" transform="translate(12.36 -1.44)" fill="#1b1b1b"/><path d="M134.38,133.86v10.22L125.53,139l8.85-5.11m1-1.74-1.5.87L125,138.1l-1.5.87,1.5.86,8.85,5.11,1.5.87V132.12Z" transform="translate(12.36 -1.44)" fill="#1b1b1b"/><path d="M118.74,148.24l11,6.35-11,6.35v-12.7m-1-1.73v16.17l1.5-.87,11-6.35,1.5-.87-1.5-.86-11-6.36-1.5-.86Z" transform="translate(12.36 -1.44)" fill="#1b1b1b"/><path d="M104.38,185.82v.05l0,0,0,0m1-1.74-1.5.87,0,0-1.49.87,1.5.86,0,0,1.5.87v-3.53Z" transform="translate(12.36 -1.44)" fill="#1b1b1b"/><path d="M191.44,3.79V24.12L173.83,14,191.44,3.79m1-1.74-1.5.87L173.33,13.09l-1.5.86,1.5.87L190.94,25l1.5.87V2.05Z" transform="translate(12.36 -1.44)" fill="#1b1b1b"/><path d="M170.32,18.8,189,29.58,170.32,40.36V18.8m-1-1.74v25l1.5-.86L189.5,30.44l1.5-.86-1.5-.87L170.82,17.93l-1.5-.87Z" transform="translate(12.36 -1.44)" fill="#1b1b1b"/><path d="M164.73,50.05V71.61L146.05,60.83l18.68-10.78m1-1.73-1.5.86L145.55,60l-1.5.86,1.5.87,18.68,10.78,1.5.87v-25Z" transform="translate(12.36 -1.44)" fill="#1b1b1b"/><path d="M143.25,65.68l18.68,10.78L143.25,87.24V65.68m-1-1.74V89l1.5-.86,18.68-10.79,1.5-.86-1.5-.87L143.75,64.81l-1.5-.87Z" transform="translate(12.36 -1.44)" fill="#1b1b1b"/><path d="M133.08,104.85v5.72l-5-2.86,5-2.86m1-1.73-1.5.87-5,2.86-1.5.86,1.5.87,5,2.86,1.5.86v-9.18Z" transform="translate(12.36 -1.44)" fill="#1b1b1b"/><path d="M120.7,120.38l5.13,3-5.13,3v-5.92m-1-1.74V128l1.5-.86,5.13-3,1.5-.86-1.5-.87-5.13-3-1.5-.87Z" transform="translate(12.36 -1.44)" fill="#1b1b1b"/><path d="M106.14,151.52v6.14l-5.32-3.07,5.32-3.07m1-1.73-1.5.87-5.32,3.07-1.5.86,1.5.87,5.32,3.07,1.5.86v-9.6Z" transform="translate(12.36 -1.44)" fill="#1b1b1b"/><path d="M93.39,166.83l5.87,3.39-5.87,3.39v-6.78m-1-1.73v10.24l1.5-.87,5.87-3.38,1.5-.87-1.5-.87L93.89,166l-1.5-.86Z" transform="translate(12.36 -1.44)" fill="#1b1b1b"/><path d="M78,200.3v2.34l-2-1.17,2-1.17m1-1.73-1.5.87-2,1.17-1.5.86,1.5.87,2,1.17,1.5.87v-5.81Z" transform="translate(12.36 -1.44)" fill="#1b1b1b"/><path d="M164.73,18.8V40.36L146.05,29.58,164.73,18.8m1-1.74-1.5.87L145.55,28.71l-1.5.87,1.5.86,18.68,10.79,1.5.86v-25Z" transform="translate(12.36 -1.44)" fill="#1b1b1b"/><path d="M143.25,34.42,161.93,45.2,143.25,56V34.42m-1-1.73v25l1.5-.87,18.68-10.78,1.5-.87-1.5-.86L143.75,33.56l-1.5-.87Z" transform="translate(12.36 -1.44)" fill="#1b1b1b"/><path d="M137.66,65.68V87.24L119,76.46l18.68-10.78m1-1.74-1.5.87L118.48,75.59l-1.5.87,1.5.86,18.68,10.79,1.5.86v-25Z" transform="translate(12.36 -1.44)" fill="#1b1b1b"/><path d="M116.21,81.34l18.61,10.75-18.61,10.74V81.34m-1-1.73v25l1.5-.86L135.32,93l1.5-.86-1.5-.87L116.71,80.47l-1.5-.86Z" transform="translate(12.36 -1.44)" fill="#1b1b1b"/><path d="M107.39,118.11v10.46l-9.06-5.23,9.06-5.23m1-1.73-1.5.86-9.06,5.23-1.5.87,1.5.86,9.06,5.24,1.5.86V116.38Z" transform="translate(12.36 -1.44)" fill="#1b1b1b"/><path d="M91.38,132.1l11.9,6.87-11.9,6.86V132.1m-1-1.73v17.2l1.5-.87,11.9-6.87,1.5-.86-1.5-.87-11.9-6.87-1.5-.86Z" transform="translate(12.36 -1.44)" fill="#1b1b1b"/><path d="M80.39,164.87v10.7l-9.27-5.35,9.27-5.35m1-1.74-1.5.87-9.27,5.35-1.5.87,1.5.87,9.27,5.35,1.5.86V163.13Z" transform="translate(12.36 -1.44)" fill="#1b1b1b"/><path d="M65.74,181.45l7.62,4.4-7.62,4.4v-8.8m-1-1.74V192l1.5-.87,7.62-4.4,1.5-.86-1.5-.87-7.62-4.4-1.5-.87Z" transform="translate(12.36 -1.44)" fill="#1b1b1b"/><path d="M143.25,3.17,161.93,14,143.25,24.73V3.17m-1-1.73v25l1.5-.87,18.68-10.78,1.5-.87-1.5-.86L143.75,2.3l-1.5-.86Z" transform="translate(12.36 -1.44)" fill="#1b1b1b"/><path d="M137.66,34.42V56L119,45.2l18.68-10.78m1-1.73-1.5.87L118.48,44.34l-1.5.86,1.5.87,18.68,10.78,1.5.87v-25Z" transform="translate(12.36 -1.44)" fill="#1b1b1b"/><path d="M116.19,50.05l18.67,10.78L116.19,71.61V50.05m-1-1.73v25l1.5-.87L135.36,61.7l1.5-.87-1.5-.86L116.69,49.18l-1.5-.86Z" transform="translate(12.36 -1.44)" fill="#1b1b1b"/><path d="M110.32,81.78v20.61L92.46,92.09l17.86-10.31m1-1.74-1.5.87L92,91.22l-1.5.87L92,93l17.86,10.31,1.5.87V80Z" transform="translate(12.36 -1.44)" fill="#1b1b1b"/><path d="M93.07,103.77l6.83,3.94-6.83,3.94v-7.88m-1-1.73v11.35l1.5-.87,6.83-3.94,1.5-.87-1.5-.86-6.83-3.95-1.5-.86Z" transform="translate(12.36 -1.44)" fill="#1b1b1b"/><path d="M81.19,132.23V145.7L69.52,139l11.67-6.74m1-1.73-1.5.86L69,138.1l-1.5.87,1.5.86,11.67,6.74,1.5.87V130.5Z" transform="translate(12.36 -1.44)" fill="#1b1b1b"/><path d="M64.76,148.49l10.56,6.1-10.56,6.1v-12.2m-1-1.73v15.66l1.5-.86,10.56-6.1,1.5-.87-1.5-.86-10.56-6.1-1.5-.87Z" transform="translate(12.36 -1.44)" fill="#1b1b1b"/><path d="M53.83,179.62v12.45l-10.78-6.22,10.78-6.23m1-1.73-1.5.87L42.55,185l-1.5.87,1.5.86,10.78,6.23,1.5.86V177.89Z" transform="translate(12.36 -1.44)" fill="#1b1b1b"/><path d="M36.63,193.54l13.74,7.93L36.63,209.4V193.54m-1-1.73v19.32l1.5-.86,13.74-7.93,1.5-.87-1.5-.86-13.74-7.93-1.5-.87Z" transform="translate(12.36 -1.44)" fill="#1b1b1b"/><path d="M136.57,5.06V22.84L121.17,14l15.4-8.89m1-1.73-1.5.87-15.4,8.89-1.5.86,1.5.87,15.4,8.89,1.5.86V3.33Z" transform="translate(12.36 -1.44)" fill="#1b1b1b"/><path d="M116.19,18.8l18.67,10.78L116.19,40.36V18.8m-1-1.74v25l1.5-.86,18.67-10.79,1.5-.86-1.5-.87L116.69,17.93l-1.5-.87Z" transform="translate(12.36 -1.44)" fill="#1b1b1b"/><path d="M110.59,50.05V71.61L91.92,60.83l18.67-10.78m1-1.73-1.5.86L91.42,60l-1.5.86,1.5.87,18.67,10.78,1.5.87v-25Z" transform="translate(12.36 -1.44)" fill="#1b1b1b"/><path d="M89.12,65.68,107.8,76.46,89.12,87.24V65.68m-1-1.74V89l1.5-.86L108.3,77.32l1.5-.86-1.5-.87L89.62,64.81l-1.5-.87Z" transform="translate(12.36 -1.44)" fill="#1b1b1b"/><path d="M80,103.08v9.27l-8-4.64,8-4.63m1-1.73-1.5.86-8,4.64-1.5.86,1.5.87,8,4.63,1.5.87V101.35Z" transform="translate(12.36 -1.44)" fill="#1b1b1b"/><path d="M66.38,120.06l5.69,3.28-5.69,3.28v-6.56m-1-1.73v10l1.5-.86,5.69-3.29,1.5-.86-1.5-.87-5.69-3.28-1.5-.86Z" transform="translate(12.36 -1.44)" fill="#1b1b1b"/><path d="M55.13,146.12v16.95l-14.68-8.48,14.68-8.47m1-1.73-1.5.86L40,153.73l-1.5.86,1.5.87,14.68,8.47,1.5.87V144.39Z" transform="translate(12.36 -1.44)" fill="#1b1b1b"/><path d="M35.59,160.48l16.86,9.74L35.59,180V160.48m-1-1.73v22.94l1.5-.87L53,171.09l1.5-.87-1.5-.87-16.86-9.73-1.5-.87Z" transform="translate(12.36 -1.44)" fill="#1b1b1b"/><path d="M28.62,192v18.9l-16.36-9.45L28.62,192m1-1.73-1.5.87-16.36,9.45-1.5.86,1.5.87,16.36,9.45,1.5.87V190.29Z" transform="translate(12.36 -1.44)" fill="#1b1b1b"/><path d="M13.56,216.09l1.75,1-1.75,1v-2m-1-1.73v5.48l1.5-.87,1.75-1,1.5-.87-1.5-.87-1.75-1-1.5-.86Z" transform="translate(12.36 -1.44)" fill="#1b1b1b"/><path d="M110.59,18.8V40.36L91.92,29.58,110.59,18.8m1-1.74-1.5.87L91.42,28.71l-1.5.87,1.5.86,18.67,10.79,1.5.86v-25Z" transform="translate(12.36 -1.44)" fill="#1b1b1b"/><path d="M89.12,34.42,107.8,45.2,89.12,56V34.42m-1-1.73v25l1.5-.87L108.3,46.07l1.5-.87-1.5-.86L89.62,33.56l-1.5-.87Z" transform="translate(12.36 -1.44)" fill="#1b1b1b"/><path d="M83.53,65.68V87.24L64.85,76.46,83.53,65.68m1-1.74-1.5.87L64.35,75.59l-1.5.87,1.5.86L83,88.11l1.5.86v-25Z" transform="translate(12.36 -1.44)" fill="#1b1b1b"/><path d="M62.05,81.3,80.73,92.09,62.05,102.87V81.3m-1-1.73v25l1.5-.87L81.23,93l1.5-.86-1.5-.87L62.55,80.44l-1.5-.87Z" transform="translate(12.36 -1.44)" fill="#1b1b1b"/><path d="M55.45,114.31v18.06l-15.64-9,15.64-9m1-1.73-1.5.86-15.64,9-1.5.87,1.5.86,15.64,9,1.5.87V112.58Z" transform="translate(12.36 -1.44)" fill="#1b1b1b"/><path d="M35.67,129.37,52.29,139l-16.62,9.59V129.37m-1-1.73v22.65l1.5-.87,16.62-9.59,1.5-.86-1.5-.87-16.62-9.59-1.5-.87Z" transform="translate(12.36 -1.44)" fill="#1b1b1b"/><path d="M28.71,160.63v19.18l-16.62-9.59,16.62-9.59m1-1.74-1.5.87-16.62,9.59-1.5.87,1.5.87,16.62,9.59,1.5.86V158.89Z" transform="translate(12.36 -1.44)" fill="#1b1b1b"/><path d="M8.77,176.54l16.13,9.31L8.77,195.16V176.54m-1-1.74v22.09l1.5-.87,16.13-9.31,1.5-.86L25.4,185,9.27,175.67l-1.5-.87Z" transform="translate(12.36 -1.44)" fill="#1b1b1b"/><path d="M-2.19,214.14v5.92l-5.13-3,5.13-3m1-1.74-1.5.87-5.13,3-1.5.87,1.5.87,5.13,3,1.5.86V212.4Z" transform="translate(12.36 -1.44)" fill="#1b1b1b"/><path d="M93.87,11.4,98.29,14,93.87,16.5V11.4m-1-1.73v8.57l1.5-.87,4.42-2.55,1.5-.87-1.5-.86-4.42-2.56-1.5-.86Z" transform="translate(12.36 -1.44)" fill="#1b1b1b"/><path d="M83.53,34.42V56L64.85,45.2,83.53,34.42m1-1.73-1.5.87L64.35,44.34l-1.5.86,1.5.87L83,56.85l1.5.87v-25Z" transform="translate(12.36 -1.44)" fill="#1b1b1b"/><path d="M62.05,50.05,80.73,60.83,62.05,71.61V50.05m-1-1.73v25l1.5-.87L81.23,61.7l1.5-.87L81.23,60,62.55,49.18l-1.5-.86Z" transform="translate(12.36 -1.44)" fill="#1b1b1b"/><path d="M56.46,81.3v21.57L37.78,92.09,56.46,81.3m1-1.73-1.5.87L37.28,91.22l-1.5.87,1.5.86L56,103.73l1.5.87v-25Z" transform="translate(12.36 -1.44)" fill="#1b1b1b"/><path d="M35,96.93l18.67,10.78L35,118.49V96.93M34,95.2v25l1.5-.87,18.67-10.78,1.5-.87-1.5-.86L35.49,96.06,34,95.2Z" transform="translate(12.36 -1.44)" fill="#1b1b1b"/><path d="M28.3,130.08v17.78L12.9,139l15.4-8.89m1-1.74-1.5.87L12.4,138.1l-1.5.87,1.5.86,15.4,8.89,1.5.87V128.34Z" transform="translate(12.36 -1.44)" fill="#1b1b1b"/><path d="M10.33,148l11.45,6.61L10.33,161.2V148m-1-1.73v16.68l1.5-.86,11.45-6.61,1.5-.87-1.5-.86-11.45-6.61-1.5-.87Z" transform="translate(12.36 -1.44)" fill="#1b1b1b"/><path d="M78.38,12.08v3.74L75.14,14l3.24-1.87m1-1.73-1.5.86-3.24,1.88-1.5.86,1.5.87,3.24,1.87,1.5.87V10.35Z" transform="translate(12.36 -1.44)" fill="#1b1b1b"/><path d="M62.05,18.8,80.73,29.58,62.05,40.36V18.8m-1-1.74v25l1.5-.86L81.23,30.44l1.5-.86-1.5-.87L62.55,17.93l-1.5-.87Z" transform="translate(12.36 -1.44)" fill="#1b1b1b"/><path d="M56.46,50.05V71.61L37.78,60.83,56.46,50.05m1-1.73-1.5.86L37.28,60l-1.5.86,1.5.87L56,72.48l1.5.87v-25Z" transform="translate(12.36 -1.44)" fill="#1b1b1b"/><path d="M35,65.68,53.66,76.46,35,87.24V65.68m-1-1.74V89l1.5-.86L54.16,77.32l1.5-.86-1.5-.87L35.49,64.81,34,63.94Z" transform="translate(12.36 -1.44)" fill="#1b1b1b"/><path d="M29.39,96.93v21.56L10.72,107.71,29.39,96.93m1-1.73-1.5.86L10.22,106.85l-1.5.86,1.5.87,18.67,10.78,1.5.87v-25Z" transform="translate(12.36 -1.44)" fill="#1b1b1b"/><path d="M7.92,112.56,26.6,123.34,7.92,134.12V112.56m-1-1.74v25l1.5-.86L27.1,124.2l1.5-.86-1.5-.87L8.42,111.69l-1.5-.87Z" transform="translate(12.36 -1.44)" fill="#1b1b1b"/><path d="M-.67,149v11.2l-9.69-5.6L-.67,149m1-1.73-1.5.87-9.69,5.6-1.5.86,1.5.87,9.69,5.6,1.5.86V147.26Z" transform="translate(12.36 -1.44)" fill="#1b1b1b"/><path d="M56.46,18.8V40.36L37.78,29.58,56.46,18.8m1-1.74-1.5.87L37.28,28.71l-1.5.87,1.5.86L56,41.23l1.5.86v-25Z" transform="translate(12.36 -1.44)" fill="#1b1b1b"/><path d="M35,34.42,53.66,45.2,35,56V34.42m-1-1.73v25l1.5-.87L54.16,46.07l1.5-.87-1.5-.86L35.49,33.56,34,32.69Z" transform="translate(12.36 -1.44)" fill="#1b1b1b"/><path d="M29.39,65.68V87.24L10.72,76.46,29.39,65.68m1-1.74-1.5.87L10.22,75.59l-1.5.87,1.5.86L28.89,88.11l1.5.86v-25Z" transform="translate(12.36 -1.44)" fill="#1b1b1b"/><path d="M7.92,81.3,26.6,92.09,7.92,102.87V81.3m-1-1.73v25l1.5-.87L27.1,93l1.5-.86-1.5-.87L8.42,80.44l-1.5-.87Z" transform="translate(12.36 -1.44)" fill="#1b1b1b"/><path d="M39.62,11.2,44.39,14l-4.77,2.76V11.2m-1-1.74v9l1.5-.87,4.77-2.75,1.5-.87-1.5-.86-4.77-2.76-1.5-.87Z" transform="translate(12.36 -1.44)" fill="#1b1b1b"/><path d="M29.39,34.42V56L10.72,45.2,29.39,34.42m1-1.73-1.5.87L10.22,44.34l-1.5.86,1.5.87L28.89,56.85l1.5.87v-25Z" transform="translate(12.36 -1.44)" fill="#1b1b1b"/><path d="M7.92,50.05,26.6,60.83,7.92,71.61V50.05m-1-1.73v25l1.5-.87L27.1,61.7l1.5-.87L27.1,60,8.42,49.18l-1.5-.86Z" transform="translate(12.36 -1.44)" fill="#1b1b1b"/><path d="M25.58,9.78v8.34L18.35,14l7.23-4.17m1-1.73-1.5.87-7.23,4.17-1.5.86,1.5.87L25.08,19l1.5.86V8.05Z" transform="translate(12.36 -1.44)" fill="#1b1b1b"/><path d="M7.92,18.8,26.6,29.58,7.92,40.36V18.8m-1-1.74v25l1.5-.86L27.1,30.44l1.5-.86-1.5-.87L8.42,17.93l-1.5-.87Z" transform="translate(12.36 -1.44)" fill="#1b1b1b"/></svg>