<?xml version="1.0" encoding="UTF-8"?>
<svg xmlns="http://www.w3.org/2000/svg" xmlns:xlink="http://www.w3.org/1999/xlink" viewBox="0 0 240 240" width="240px" height="240px">
<g id="surface19998249">
<path style=" stroke:none;fill-rule:nonzero;fill:rgb(10.980392%,47.450981%,41.960785%);fill-opacity:1;" d="M 31.25 10 C 22.191406 10 15.03125 14.804688 11.640625 23.125 C 10.570312 25.695312 10.03125 28.421875 10.019531 31.230469 C 10.007812 40.539062 16.007812 48.097656 19.609375 52.617188 C 20.238281 53.40625 20.804688 54.109375 21.40625 54.960938 L 23.027344 57.109375 C 24.636719 59.21875 26.472656 61.613281 27.050781 62.8125 C 27.242188 63.363281 27.492188 64.328125 27.832031 65.546875 C 29.402344 71.195312 32.332031 81.699219 36.992188 89.6875 C 38.871094 92.90625 41.519531 96.953125 43.417969 99.804688 C 42.148438 106.164062 40 117.878906 40 125 C 40 137.5 42.59375 147.539062 48.242188 156.71875 C 50.332031 160 56.710938 170 67.5 170 C 71.328125 170 77.695312 168.503906 79.414062 159.003906 C 87.0625 168.875 100 181.25 120 190 C 120 190 82.507812 146.253906 75.917969 118.984375 C 75.917969 118.984375 68.746094 126.253906 62.65625 141.09375 C 60.835938 136.515625 60 131.351562 60 125 C 60 118.730469 62.757812 104.714844 63.828125 99.84375 L 64.765625 95.605469 L 62.304688 92.03125 C 62.265625 91.960938 57.226562 84.6875 54.277344 79.628906 C 50.917969 73.867188 48.4375 64.957031 47.109375 60.175781 C 46.460938 57.847656 45.949219 56.160156 45.46875 55.019531 C 43.71875 51.230469 41.15625 47.902344 38.90625 44.960938 L 37.65625 43.300781 C 37.027344 42.390625 36.195312 41.335938 35.253906 40.15625 C 33.425781 37.855469 30.015625 33.570312 30.117188 30.820312 L 31.230469 30.039062 L 31.25 30 C 39.199219 30 49.441406 35.644531 53.300781 37.773438 C 54.5625 38.464844 55.488281 38.941406 55.976562 39.160156 L 57.714844 39.921875 L 61.132812 40.039062 C 65.601562 40.140625 79.1875 40.457031 88.789062 44.296875 C 106.300781 51.296875 115.980469 58.304688 125.820312 71.09375 C 149.058594 101.3125 157.636719 140.449219 157.714844 140.839844 L 158.964844 146.484375 L 164.433594 148.261719 C 164.625 148.332031 179.929688 153.445312 194.199219 166.816406 C 176.25 171.257812 170 180 170 180 C 170 180 174.761719 189.28125 197.5 203.75 C 211.25 212.5 218.75 218.75 230 230 C 230 230 218.757812 205 203.046875 185.078125 C 215.007812 181.25 229.707031 179.257812 229.707031 179.257812 L 220.605469 166.640625 C 205.625 145.871094 185.535156 135.386719 175.976562 131.308594 C 172.65625 118.648438 162.628906 86.144531 141.679688 58.90625 C 129.691406 43.316406 116.929688 33.992188 96.210938 25.703125 C 83.941406 20.804688 69.1875 20.21875 62.617188 20.058594 C 56.867188 16.898438 44.089844 10 31.25 10 Z M 71.875 50 C 71.875 50 67.5 50 62.5 51.25 L 76.25 69.980469 C 80 65 80 59.179688 80 59.179688 C 80 59.179688 77.503906 52.5 71.875 50 Z M 71.875 50 "/>
</g>
</svg>
